<?xml version="1.0" encoding="utf-8"?>
<!-- Generator: Adobe Illustrator 16.0.0, SVG Export Plug-In . SVG Version: 6.00 Build 0)  -->
<!DOCTYPE svg PUBLIC "-//W3C//DTD SVG 1.1//EN" "http://www.w3.org/Graphics/SVG/1.1/DTD/svg11.dtd">
<svg version="1.1" id="Maket" xmlns="http://www.w3.org/2000/svg" xmlns:xlink="http://www.w3.org/1999/xlink" x="0px" y="0px"
	 width="111.011px" height="84.727px" viewBox="0 0 111.011 84.727" enable-background="new 0 0 111.011 84.727"
	 xml:space="preserve">
<path fill="#7C858C" d="M62.578,64.546C69.5,58.927,81.084,46.174,81.742,25.83c0,0-1.337-0.75-3.036-1.483
	c0.442,20.841-15.878,30.573-15.879,30.562c0,0-8.223-6.445-7.902-18.679c0,0,3.457-0.103,6.701,1.521c0,0,3.132-3.047,3.794-8.059
	c-11.146-3.553-21.105,0.192-21.105,0.192C45.011,47.454,54.918,58.854,62.578,64.546"/>
<path fill="#7D868C" d="M60.793,65.899C40.99,50.757,42.12,28.725,42.12,28.725c13.35-5.272,25.433-0.313,25.705-0.199
	c0.011,0,0.024-0.001,0.038-0.003c-0.019,0.004-0.031,0.005-0.031,0.005C66.915,39.72,57.734,43.35,57.734,43.35
	c1.337,5.083,5.093,8.848,5.093,8.848c8.564-6.482,14.447-16.326,13.82-28.697c0,0-8.013-3.501-18.699-3.501
	c-13.937,0-23.793,5.83-23.793,5.83c0.944,29.139,23.793,42.029,23.793,42.029"/>
<path fill="#7D868C" d="M67.769,28.528c0.012,0,0.029,0,0.062,0c0,0-0.003-0.001-0.006-0.002
	C67.8,28.526,67.78,28.527,67.769,28.528z"/>
<path fill="#7D868C" d="M67.769,28.528C67.756,28.528,67.754,28.528,67.769,28.528L67.769,28.528z"/>
</svg>
