<?xml version="1.0" encoding="utf-8"?>
<!-- Generator: Adobe Illustrator 16.0.0, SVG Export Plug-In . SVG Version: 6.00 Build 0)  -->
<!DOCTYPE svg PUBLIC "-//W3C//DTD SVG 1.1//EN" "http://www.w3.org/Graphics/SVG/1.1/DTD/svg11.dtd">
<svg version="1.1" id="Layer_1" xmlns="http://www.w3.org/2000/svg" xmlns:xlink="http://www.w3.org/1999/xlink" x="0px" y="0px"
	 width="50.471px" height="49.555px" viewBox="0 0 50.471 49.555" enable-background="new 0 0 50.471 49.555" xml:space="preserve">
<g>
	<path fill="#7A868C" d="M20.853,34.425c-3.678,0-7.136-1.433-9.737-4.034c-5.369-5.369-5.369-14.105,0-19.474
		c2.601-2.601,6.059-4.033,9.737-4.033s7.136,1.432,9.737,4.033c2.601,2.601,4.034,6.059,4.034,9.737s-1.433,7.136-4.034,9.737
		S24.531,34.425,20.853,34.425z M20.853,7.884c-3.411,0-6.618,1.328-9.03,3.74c-4.979,4.979-4.979,13.081,0,18.06
		c2.412,2.412,5.619,3.741,9.03,3.741s6.618-1.329,9.03-3.741s3.741-5.619,3.741-9.03s-1.329-6.618-3.741-9.03
		S24.264,7.884,20.853,7.884z"/>
</g>
<g>
	<path fill="#7A868C" d="M42.412,43.214c-0.256,0-0.512-0.098-0.707-0.293l-9.939-9.939c-0.391-0.391-0.391-1.023,0-1.414
		s1.023-0.391,1.414,0l9.939,9.939c0.391,0.391,0.391,1.023,0,1.414C42.924,43.116,42.668,43.214,42.412,43.214z"/>
</g>
</svg>
