<?xml version="1.0" encoding="utf-8"?>
<!-- Generator: Adobe Illustrator 16.0.0, SVG Export Plug-In . SVG Version: 6.00 Build 0)  -->
<!DOCTYPE svg PUBLIC "-//W3C//DTD SVG 1.1//EN" "http://www.w3.org/Graphics/SVG/1.1/DTD/svg11.dtd">
<svg version="1.1" id="Layer_1" xmlns="http://www.w3.org/2000/svg" xmlns:xlink="http://www.w3.org/1999/xlink" x="0px" y="0px"
	 width="65px" height="65px" viewBox="0 0 65 65" enable-background="new 0 0 65 65" xml:space="preserve">
<g>
	<path fill="#94D60A" d="M45.315,45.244c7.056-7.056,7.056-18.536,0-25.592c-3.418-3.418-7.963-5.301-12.797-5.301
		s-9.379,1.883-12.796,5.301c-7.054,7.056-7.054,18.536,0,25.592c3.417,3.418,7.962,5.301,12.796,5.301S41.897,48.662,45.315,45.244
		z M21.136,21.066c3.041-3.04,7.083-4.715,11.382-4.715s8.343,1.675,11.383,4.715c6.275,6.276,6.275,16.487,0,22.764
		c-3.04,3.04-7.083,4.715-11.383,4.715s-8.342-1.675-11.382-4.715C14.862,37.554,14.862,27.343,21.136,21.066z"/>
	<path fill="#94D60A" d="M65,38V28c0,0-2.588,0-4.189,0c-0.641-4.131-2.169-8.039-4.496-11.495l2.863-2.863L52.106,6.57
		c0,0-1.429,1.595-2.562,2.728C46.061,6.749,42,5.043,38,4.277V0H28c0,0,0,2.582,0,4.226c-4,0.699-8.166,2.284-11.593,4.662
		l-3.108-3.025l-7.113,7.071c0,0,1.809,1.83,2.972,2.992c-2.39,3.38-3.99,7.161-4.742,11.074H0v10c0,0,2.562,0,4.265,0
		c0.645,4.038,2.153,7.961,4.525,11.473l-3.353,3.353l7.071,7.071c0,0,2.198-2.032,3.404-3.237C19.183,58.032,23,59.67,27,60.484V65
		h10c0,0,0-2.55,0-4.215c4-0.597,7.896-2.088,11.373-4.375l3.11,3.193l7.029-7.071c0,0-1.825-1.803-3.002-2.98
		c2.567-3.432,4.29-7.364,5.109-11.552H65z M16.513,16.442c4.275-4.276,9.96-6.632,16.006-6.632c6.047,0,11.73,2.355,16.007,6.633
		c4.275,4.274,6.631,9.958,6.631,16.004c0,6.047-2.355,11.731-6.631,16.007s-9.96,6.63-16.007,6.63s-11.731-2.354-16.006-6.63
		C7.688,39.628,7.688,25.268,16.513,16.442z"/>
</g>
</svg>
