<?xml version="1.0" encoding="utf-8"?>
<!-- Generator: Adobe Illustrator 16.0.0, SVG Export Plug-In . SVG Version: 6.00 Build 0)  -->
<!DOCTYPE svg PUBLIC "-//W3C//DTD SVG 1.1//EN" "http://www.w3.org/Graphics/SVG/1.1/DTD/svg11.dtd">
<svg version="1.1" id="Layer_1" xmlns="http://www.w3.org/2000/svg" xmlns:xlink="http://www.w3.org/1999/xlink" x="0px" y="0px"
	 width="142.067px" height="150.395px" viewBox="0 0 142.067 150.395" enable-background="new 0 0 142.067 150.395"
	 xml:space="preserve">
<g>
	<path fill="#CCCCCC" d="M89.947,91.979c-0.182,0.105-0.333,0.194-0.465,0.271c8.464,4.122,21.975,8.491,35.062,8.804
		c3.583-6.365,6.871-12.976,9.119-20.046c-12.09,5.227-25.102,7.381-38.947,8.039C93.152,90.063,91.563,91.041,89.947,91.979z"/>
	<path fill="#CCCCCC" d="M102.385,83.569c12.343-1.992,26.034-6.914,33.731-11.856c1.947-8.285,2.99-16.92,2.99-25.799
		c0-3.732-0.187-7.42-0.541-11.058C131.153,54.251,118.515,71.05,102.385,83.569z"/>
	<path fill="#CCCCCC" d="M122.212,104.321c-14.492,0-28.342-2.743-41.063-7.739c-7.624-2.994-14.841-6.798-21.547-11.305
		c-0.058-0.039-0.117-0.076-0.175-0.115C32.384,66.912,13.714,37.203,10.374,3C5.614,15.455,3,28.971,3,43.1
		c0,1.97,0.051,3.928,0.151,5.873c0.071,1.377,0.174,2.743,0.294,4.107c0.391,4.431,0.989,8.908,1.929,13.283
		c0.277,1.293,0.146,0.803,0.277,1.293c7.901,8.304,24.136,18.515,28.219,21.433c-4.166-0.833-19.607-8.29-25.736-12.343
		c3.521,11.237,8.796,22.364,15.895,31.805c5.092,2.159,14.967,7.017,18.467,8.204c-4.5-0.438-10.779-2.239-14.85-3.435
		c11.738,14.645,27.063,26.289,44.646,33.596c0.672,0.279,1.346,0.557,2.025,0.823c3.295-1.543,6.502-3.24,9.613-5.084
		c15.871-9.404,29.23-22.597,38.826-38.34C122.575,104.315,122.394,104.321,122.212,104.321z"/>
</g>
</svg>
