<?xml version="1.0" encoding="utf-8"?>
<!-- Generator: Adobe Illustrator 16.0.0, SVG Export Plug-In . SVG Version: 6.00 Build 0)  -->
<!DOCTYPE svg PUBLIC "-//W3C//DTD SVG 1.1//EN" "http://www.w3.org/Graphics/SVG/1.1/DTD/svg11.dtd">
<svg version="1.1" id="Maket" xmlns="http://www.w3.org/2000/svg" xmlns:xlink="http://www.w3.org/1999/xlink" x="0px" y="0px"
	 width="181.49px" height="112.137px" viewBox="0 0 181.49 112.137" enable-background="new 0 0 181.49 112.137"
	 xml:space="preserve">
<g id="Logo_1">
	<path fill="#95D600" d="M108.356,24.347c0.442,20.841-15.878,30.573-15.879,30.562c0,0-8.223-6.445-7.902-18.679
		c0,0,3.457-0.103,6.701,1.521c0,0,3.132-3.047,3.794-8.059c-11.146-3.553-21.105,0.192-21.105,0.192
		c0.696,17.57,10.604,28.97,18.264,34.662c6.922-5.619,18.506-18.372,19.164-38.717C111.392,25.83,110.055,25.08,108.356,24.347z"/>
	<g>
		<path fill="#7D868C" d="M106.297,23.501c0,0-8.013-3.501-18.699-3.501c-13.937,0-23.793,5.83-23.793,5.83
			c0.944,29.139,23.793,42.029,23.793,42.029l2.845-1.959C70.64,50.757,71.771,28.725,71.771,28.725
			c13.35-5.272,25.433-0.313,25.705-0.199c0.011,0,0.024-0.001,0.038-0.003c-0.019,0.004-0.031,0.005-0.031,0.005
			C96.565,39.72,87.384,43.35,87.384,43.35c1.337,5.083,5.093,8.848,5.093,8.848C101.042,45.716,106.924,35.873,106.297,23.501z"/>
		<path fill="#7D868C" d="M97.419,28.528c0.012,0,0.029,0,0.062,0c0,0-0.003-0.001-0.006-0.002
			C97.451,28.526,97.431,28.527,97.419,28.528z"/>
		<path fill="#7D868C" d="M97.419,28.528C97.406,28.528,97.404,28.528,97.419,28.528L97.419,28.528z"/>
	</g>
	<g>
		<rect x="150.354" y="90.351" fill="#7D868C" width="1.759" height="12.75"/>
		<circle fill="#7D868C" cx="151.233" cy="86.786" r="1.36"/>
		<path fill="#7D868C" d="M141.69,90.016c-1.526,0-2.908,0.616-3.913,1.612v-1.277h-1.631v12.75h1.631v-7.795
			c0.139-2.043,1.835-3.657,3.913-3.657c2.168,0,3.925,1.757,3.925,3.926v7.527h1.632v-7.618h-0.002
			C147.245,92.315,144.729,90.016,141.69,90.016z"/>
		<path fill="#7D868C" d="M72.515,92.353c-1.231-1.425-3.051-2.33-5.082-2.33c-3.708,0-6.714,3.006-6.714,6.713
			c0,3.708,3.006,6.714,6.714,6.714c2.03,0,3.85-0.904,5.082-2.329v1.979h1.631V85.426h-1.631V92.353z M67.433,101.831
			c-2.813,0-5.095-2.281-5.095-5.094s2.281-5.094,5.095-5.094c2.731,0,4.954,2.152,5.082,4.853v0.482
			C72.387,99.679,70.165,101.831,67.433,101.831z"/>
		<polygon fill="#7D868C" points="21.557,99.127 18.512,91.226 20.754,85.426 19.193,85.426 17.734,89.21 16.276,85.426 
			14.716,85.426 16.958,91.226 13.913,99.127 8.632,85.426 7.071,85.426 13.913,103.125 17.734,93.237 21.557,103.125 
			28.398,85.426 26.837,85.426 		"/>
		<path fill="#7D868C" d="M35.752,90.023c-3.708,0-6.713,3.006-6.713,6.713c0,3.708,3.005,6.714,6.713,6.714
			s6.713-3.006,6.713-6.714C42.465,93.029,39.46,90.023,35.752,90.023z M35.752,101.831c-2.813,0-5.094-2.281-5.094-5.094
			s2.281-5.094,5.094-5.094c2.813,0,5.094,2.28,5.094,5.094S38.565,101.831,35.752,101.831z"/>
		<path fill="#7D868C" d="M51.592,90.023c-3.708,0-6.713,3.006-6.713,6.713c0,3.708,3.005,6.714,6.713,6.714
			c3.708,0,6.714-3.006,6.714-6.714C58.306,93.029,55.3,90.023,51.592,90.023z M51.592,101.831c-2.813,0-5.093-2.281-5.093-5.094
			s2.28-5.094,5.093-5.094c2.814,0,5.095,2.28,5.095,5.094S54.406,101.831,51.592,101.831z"/>
		<path fill="#7D868C" d="M98.059,90.023c-3.708,0-6.713,3.006-6.713,6.713s3.006,6.713,6.713,6.713c2.69,0,5.007-1.583,6.078-3.867
			l-1.437-0.766c-0.795,1.775-2.57,3.015-4.642,3.015c-2.771,0-5.088-2.177-5.088-5.294h11.802
			C104.619,92.7,101.542,90.023,98.059,90.023z M98.059,91.642c2.289,0,4.226,1.509,4.868,3.586h-9.735
			C93.834,93.151,95.771,91.642,98.059,91.642z"/>
		<polygon fill="#7D868C" points="82.457,85.426 76.559,85.426 76.559,87.058 82.457,87.058 82.457,103.101 84.089,103.101 
			84.089,87.058 89.986,87.058 89.986,85.426 84.089,85.426 		"/>
		<path fill="#7D868C" d="M113.901,101.831c-2.771,0-5.088-2.231-5.088-5.094c0-3.323,2.8-5.095,5.088-5.095
			c1.877,0,3.516,1.017,4.399,2.527l1.373-0.864c-1.175-1.985-3.33-3.283-5.772-3.283c-3.708,0-6.714,3.006-6.714,6.713
			s3.006,6.713,6.714,6.713c2.69,0,5.007-1.583,6.079-3.867l-1.438-0.766C117.748,100.592,115.972,101.831,113.901,101.831z"/>
		<path fill="#7D868C" d="M166.63,98.816c-0.796,1.775-2.57,3.015-4.642,3.015c-2.771,0-5.088-2.231-5.088-5.094
			c0-3.323,2.8-5.095,5.088-5.095c1.877,0,3.516,1.017,4.399,2.527l1.372-0.864c-1.174-1.985-3.33-3.283-5.771-3.283
			c-3.708,0-6.713,3.006-6.713,6.713s3.005,6.713,6.713,6.713c2.69,0,5.007-1.583,6.078-3.867L166.63,98.816z"/>
		<path fill="#7D868C" d="M127.937,90.016c-1.526,0-2.908,0.616-3.913,1.612v-6.202h-1.631v17.674h1.631v-7.795
			c0.139-2.043,1.835-3.657,3.913-3.657c2.168,0,3.925,1.757,3.925,3.926v7.527h1.631v-7.618h-0.002
			C133.491,92.315,130.975,90.016,127.937,90.016z"/>
	</g>
</g>
</svg>
